<?xml version="1.0" encoding="UTF-8" ?>
<!DOCTYPE svg PUBLIC "-//W3C//DTD SVG 1.1//EN" "http://www.w3.org/Graphics/SVG/1.1/DTD/svg11.dtd">
<svg width="440pt" height="470pt" viewBox="0 0 440 470" version="1.1" xmlns="http://www.w3.org/2000/svg">
<g id="#328991ff">
</g>
<g id="#388d94ff">
</g>
<g id="#85cf16ff">
<path fill="#85cf16" opacity="1.00" d=" M 196.81 104.74 C 203.08 94.39 208.58 83.60 215.01 73.36 C 220.21 80.92 224.21 89.21 228.98 97.04 C 268.99 166.28 308.93 235.56 348.97 304.78 C 357.96 320.51 367.13 336.14 376.13 351.87 C 378.48 356.01 381.19 359.96 383.02 364.39 C 365.34 365.06 347.65 364.62 329.96 364.75 C 306.41 365.00 282.87 364.11 259.32 364.66 C 229.53 364.28 199.71 364.62 169.91 364.47 C 176.54 353.74 182.45 342.58 188.94 331.76 C 191.51 327.63 193.14 322.91 196.52 319.32 C 232.64 319.71 268.76 319.44 304.88 319.45 C 303.02 314.50 299.84 310.23 297.33 305.60 C 261.80 244.14 226.36 182.63 190.81 121.18 C 190.23 119.85 188.93 118.35 189.95 116.91 C 191.95 112.70 194.52 108.79 196.81 104.74 Z" />
<path fill="#85cf16" opacity="1.00" d=" M 183.60 127.33 C 184.10 127.31 185.10 127.26 185.59 127.24 C 198.05 149.69 211.18 171.75 223.90 194.05 C 246.25 232.97 268.89 271.72 291.10 310.72 C 275.07 310.79 259.05 310.71 243.02 310.78 C 241.30 310.62 238.86 311.04 238.15 308.97 C 220.69 278.11 202.44 247.70 185.15 216.74 C 181.16 220.84 178.93 226.19 176.03 231.04 C 164.76 250.63 153.35 270.14 142.19 289.79 C 119.69 328.46 97.41 367.25 75.02 405.98 C 72.64 409.70 71.01 413.95 68.05 417.27 C 66.05 417.58 64.02 417.53 62.00 417.54 C 46.73 417.37 31.45 417.64 16.18 417.40 C 21.65 408.15 27.19 398.94 32.38 389.53 C 63.00 336.71 93.41 283.76 124.00 230.92 C 143.78 196.34 163.94 161.98 183.60 127.33 Z" />
<path fill="#85cf16" opacity="1.00" d=" M 178.08 243.00 C 180.23 239.68 181.45 235.53 184.76 233.12 C 192.12 247.55 201.02 261.16 208.79 275.37 C 210.29 277.51 208.88 279.90 207.82 281.87 C 190.42 311.94 172.93 341.96 155.75 372.15 C 193.04 372.36 230.34 372.25 267.64 372.21 C 307.10 372.33 346.56 372.19 386.02 372.28 C 387.95 371.91 388.77 373.84 389.67 375.14 C 397.79 389.26 405.81 403.44 414.04 417.49 C 366.55 417.60 319.06 417.32 271.57 417.64 C 206.99 417.30 142.40 417.63 77.82 417.47 C 79.82 412.26 82.97 407.64 85.71 402.82 C 106.33 367.14 127.00 331.47 147.58 295.76 C 157.82 278.22 167.89 260.58 178.08 243.00 Z" />
</g>
<g id="#2e878fff">
</g>
<g id="#338a92ff">
</g>
</svg>
