<?xml version="1.0" encoding="UTF-8"?>
<svg width="800" height="400" xmlns="http://www.w3.org/2000/svg">
  <style>
    text { font-family: Arial, sans-serif; }
    .title { font-size: 24px; font-weight: bold; }
    .subtitle { font-size: 16px; }
    .component { font-size: 14px; font-weight: bold; }
    .arrow { stroke: #333; stroke-width: 2; marker-end: url(#arrowhead); }
    .module { fill: #e8f5e9; stroke: #81c784; stroke-width: 2; }
    .event { fill: #fff8e1; stroke: #ffd54f; stroke-width: 2; }
    .task { fill: #f3e5f5; stroke: #ba68c8; stroke-width: 2; }
    .flow-box { fill: #e3f2fd; stroke: #64b5f6; stroke-width: 2; }
  </style>

  <defs>
    <marker id="arrowhead" markerWidth="10" markerHeight="7" refX="9" refY="3.5" orient="auto">
      <polygon points="0 0, 10 3.5, 0 7" fill="#333" />
    </marker>
  </defs>

  <rect x="50" y="50" width="700" height="300" rx="10" ry="10" fill="#f5f5f5" stroke="#e0e0e0" stroke-width="2" />
  <text x="400" y="30" text-anchor="middle" class="title">Event-Task System</text>

  <!-- Event Flow -->
  <rect x="100" y="100" width="600" height="180" rx="5" ry="5" class="flow-box" />
  <text x="400" y="85" text-anchor="middle" class="subtitle">Event-Task Flow</text>

  <!-- External Trigger -->
  <rect x="120" y="130" width="100" height="50" rx="5" ry="5" fill="#b39ddb" stroke="#333" stroke-width="1" />
  <text x="170" y="160" text-anchor="middle" class="component">External Trigger</text>

  <!-- Event -->
  <rect x="270" y="130" width="100" height="50" rx="5" ry="5" class="event" />
  <text x="320" y="160" text-anchor="middle" class="component">Event</text>

  <!-- Task Creation -->
  <rect x="420" y="130" width="100" height="50" rx="5" ry="5" class="task" />
  <text x="470" y="160" text-anchor="middle" class="component">Task</text>

  <!-- Result/New Event -->
  <rect x="570" y="130" width="100" height="50" rx="5" ry="5" class="event" />
  <text x="620" y="160" text-anchor="middle" class="component">New Event</text>

  <!-- Details -->
  <text x="170" y="200" text-anchor="middle" font-size="12">User Action,</text>
  <text x="170" y="215" text-anchor="middle" font-size="12">Timer, API Call</text>

  <text x="320" y="200" text-anchor="middle" font-size="12">type: "UPDATE_DATA"</text>
  <text x="320" y="215" text-anchor="middle" font-size="12">payload: { data }</text>

  <text x="470" y="200" text-anchor="middle" font-size="12">Process Data,</text>
  <text x="470" y="215" text-anchor="middle" font-size="12">Perform Actions</text>

  <text x="620" y="200" text-anchor="middle" font-size="12">type: "DATA_UPDATED"</text>
  <text x="620" y="215" text-anchor="middle" font-size="12">payload: { result }</text>

  <!-- Arrows -->
  <line x1="220" y1="155" x2="270" y2="155" class="arrow" />
  <line x1="370" y1="155" x2="420" y2="155" class="arrow" />
  <line x1="520" y1="155" x2="570" y2="155" class="arrow" />
  
  <!-- Cycle back -->
  <path d="M 620,230 Q 620,260 400,260 Q 170,260 170,230" fill="none" stroke="#333" stroke-width="2" stroke-dasharray="5,5" />
  <line x1="180" y1="230" x2="170" y2="220" stroke="#333" stroke-width="2" marker-end="url(#arrowhead)" />

  <!-- Code Example -->
  <text x="400" y="290" text-anchor="middle" font-size="12">agent.sensing.emitEvent({ type: "UPDATE_DATA", payload: { data } });</text>
  <text x="400" y="310" text-anchor="middle" font-size="12">agent.taskManager.createTask({ type: "PROCESS_DATA", callback: (data) => { ... } });</text>
  <text x="400" y="330" text-anchor="middle" font-size="12">agent.sensing.emitEvent({ type: "DATA_UPDATED", payload: { result } });</text>
</svg>
