<?xml version="1.0" encoding="UTF-8"?>
<svg width="800" height="500" xmlns="http://www.w3.org/2000/svg">
  <style>
    text { font-family: Arial, sans-serif; }
    .title { font-size: 24px; font-weight: bold; }
    .subtitle { font-size: 16px; }
    .component { font-size: 14px; font-weight: bold; }
    .arrow { stroke: #333; stroke-width: 2; marker-end: url(#arrowhead); }
    .agent { fill: #e3f2fd; stroke: #64b5f6; stroke-width: 2; }
    .sensing { fill: #fff8e1; stroke: #ffd54f; stroke-width: 2; }
    .event { fill: #ffecb3; stroke: #ffd54f; stroke-width: 1; }
  </style>

  <defs>
    <marker id="arrowhead" markerWidth="10" markerHeight="7" refX="9" refY="3.5" orient="auto">
      <polygon points="0 0, 10 3.5, 0 7" fill="#333" />
    </marker>
  </defs>

  <rect x="50" y="50" width="700" height="400" rx="10" ry="10" fill="#f5f5f5" stroke="#e0e0e0" stroke-width="2" />
  <text x="400" y="30" text-anchor="middle" class="title">Group Sensing Communication</text>

  <!-- Group Sensing Layer -->
  <rect x="150" y="210" width="500" height="80" rx="5" ry="5" class="sensing" />
  <text x="400" y="250" text-anchor="middle" class="component">Group Sensing Layer (Shared Event Bus)</text>

  <!-- Agent 1 -->
  <rect x="100" y="80" width="150" height="80" rx="5" ry="5" class="agent" />
  <text x="175" y="110" text-anchor="middle" class="component">Agent 1</text>
  <text x="175" y="130" text-anchor="middle" font-size="12">Data Producer</text>
  
  <!-- Agent 2 -->
  <rect x="325" y="80" width="150" height="80" rx="5" ry="5" class="agent" />
  <text x="400" y="110" text-anchor="middle" class="component">Agent 2</text>
  <text x="400" y="130" text-anchor="middle" font-size="12">Data Processor</text>
  
  <!-- Agent 3 -->
  <rect x="550" y="80" width="150" height="80" rx="5" ry="5" class="agent" />
  <text x="625" y="110" text-anchor="middle" class="component">Agent 3</text>
  <text x="625" y="130" text-anchor="middle" font-size="12">Insight Generator</text>

  <!-- Agent 1 -->
  <rect x="100" y="340" width="150" height="80" rx="5" ry="5" class="agent" />
  <text x="175" y="370" text-anchor="middle" class="component">Agent 4</text>
  <text x="175" y="390" text-anchor="middle" font-size="12">Portfolio Manager</text>
  
  <!-- Agent 2 -->
  <rect x="325" y="340" width="150" height="80" rx="5" ry="5" class="agent" />
  <text x="400" y="370" text-anchor="middle" class="component">Agent 5</text>
  <text x="400" y="390" text-anchor="middle" font-size="12">Execution System</text>
  
  <!-- Agent 3 -->
  <rect x="550" y="340" width="150" height="80" rx="5" ry="5" class="agent" />
  <text x="625" y="370" text-anchor="middle" class="component">Agent 6</text>
  <text x="625" y="390" text-anchor="middle" font-size="12">Notification Service</text>

  <!-- Events -->
  <rect x="130" y="220" width="100" height="30" rx="5" ry="5" class="event" />
  <text x="180" y="240" text-anchor="middle" font-size="12">RAW_DATA_EVENT</text>
  
  <rect x="240" y="220" width="100" height="30" rx="5" ry="5" class="event" />
  <text x="290" y="240" text-anchor="middle" font-size="12">PROCESSED_DATA</text>
  
  <rect x="350" y="220" width="100" height="30" rx="5" ry="5" class="event" />
  <text x="400" y="240" text-anchor="middle" font-size="12">INSIGHT_AVAILABLE</text>
  
  <rect x="460" y="220" width="100" height="30" rx="5" ry="5" class="event" />
  <text x="510" y="240" text-anchor="middle" font-size="12">TRADE_EXECUTED</text>
  
  <rect x="570" y="220" width="100" height="30" rx="5" ry="5" class="event" />
  <text x="620" y="240" text-anchor="middle" font-size="12">NOTIFY_USER</text>

  <!-- Arrows -->
  <!-- Emission arrows -->
  <line x1="175" y1="160" x2="175" y2="220" class="arrow" />
  <line x1="400" y1="160" x2="290" y2="220" class="arrow" />
  <line x1="625" y1="160" x2="400" y2="220" class="arrow" />
  <line x1="400" y1="340" x2="510" y2="250" class="arrow" />
  <line x1="625" y1="340" x2="620" y2="250" class="arrow" />
  
  <!-- Listening arrows (dashed) -->
  <line x1="400" y1="220" x2="175" y2="340" stroke-dasharray="5,5" class="arrow" />
  <line x1="510" y1="220" x2="400" y2="340" stroke-dasharray="5,5" class="arrow" />
  <line x1="290" y1="220" x2="625" y2="160" stroke-dasharray="5,5" class="arrow" />
  <line x1="180" y1="220" x2="400" y2="160" stroke-dasharray="5,5" class="arrow" />
  <line x1="620" y1="220" x2="625" y2="340" stroke-dasharray="5,5" class="arrow" />

  <!-- Legend -->
  <rect x="50" y="450" width="20" height="3" fill="#333" />
  <text x="80" y="453" font-size="10">Event Emission</text>
  
  <rect x="200" y="450" width="20" height="3" fill="#333" stroke-dasharray="5,5" />
  <text x="230" y="453" font-size="10">Event Listening</text>
</svg>
