<?xml version="1.0" encoding="UTF-8" ?>
<!DOCTYPE svg PUBLIC "-//W3C//DTD SVG 1.1//EN" "http://www.w3.org/Graphics/SVG/1.1/DTD/svg11.dtd">
<svg width="1226pt" height="510pt" viewBox="0 0 1226 510" version="1.1" xmlns="http://www.w3.org/2000/svg">
<g id="#fefefeff">
</g>
<g id="#000000ff">
<path fill="#000000" opacity="1.00" d=" M 206.40 107.21 C 228.63 107.20 250.85 107.20 273.07 107.21 C 273.79 108.82 274.52 110.43 275.10 112.10 C 275.38 113.12 275.67 114.15 275.96 115.18 C 277.32 117.71 278.40 120.40 278.89 123.25 C 279.40 124.16 279.93 125.07 280.47 125.97 C 280.55 126.48 280.71 127.49 280.79 127.99 C 281.23 129.01 281.64 130.03 282.03 131.07 C 283.80 135.36 285.18 139.80 286.90 144.11 C 287.31 145.11 287.69 146.13 288.05 147.16 C 288.62 148.83 289.22 150.49 289.88 152.14 C 290.30 153.11 290.70 154.10 291.09 155.08 C 291.38 156.11 291.66 157.14 291.96 158.17 C 293.66 161.31 294.44 164.83 295.83 168.11 C 296.19 169.10 296.55 170.10 296.92 171.10 C 297.30 172.10 297.67 173.11 298.03 174.12 C 298.61 175.80 299.22 177.47 299.89 179.12 C 300.30 180.11 300.69 181.11 301.06 182.13 C 301.66 184.12 302.36 186.10 303.33 187.95 C 304.31 190.67 304.94 193.54 306.42 196.05 C 306.52 196.54 306.72 197.51 306.81 198.00 C 307.24 199.03 307.64 200.07 308.03 201.13 C 308.68 202.76 309.32 204.41 309.90 206.08 C 310.29 207.07 310.68 208.07 311.06 209.07 C 311.37 210.10 311.68 211.13 311.99 212.16 C 312.81 213.77 313.53 215.43 314.06 217.16 C 314.62 218.84 315.22 220.52 315.88 222.17 C 317.36 225.74 318.59 229.41 319.95 233.03 C 320.30 234.05 320.65 235.07 320.99 236.10 C 321.21 236.59 321.64 237.58 321.86 238.07 C 322.20 239.09 322.55 240.10 322.90 241.12 C 323.84 243.05 324.50 245.09 324.92 247.20 C 325.17 247.66 325.68 248.60 325.93 249.07 C 326.30 250.05 326.66 251.04 327.01 252.04 C 327.55 253.77 328.15 255.48 328.89 257.15 C 329.87 259.05 330.42 261.12 330.94 263.18 C 331.80 264.71 332.52 266.32 332.92 268.03 C 333.29 269.07 333.66 270.10 334.03 271.15 C 334.75 272.75 335.39 274.38 335.91 276.06 C 336.30 277.07 336.69 278.09 337.07 279.11 C 337.38 280.12 337.67 281.13 337.96 282.15 C 338.21 282.65 338.72 283.64 338.97 284.14 C 339.32 285.11 339.67 286.10 340.00 287.09 C 340.60 288.80 341.21 290.50 341.91 292.17 C 342.32 293.13 342.72 294.10 343.10 295.08 C 343.38 296.11 343.67 297.14 343.97 298.17 C 344.78 299.71 345.52 301.30 345.92 303.00 C 346.29 304.04 346.66 305.08 347.03 306.13 C 347.24 306.62 347.65 307.61 347.85 308.10 C 348.21 309.07 348.56 310.05 348.92 311.04 C 349.30 312.06 349.68 313.10 350.04 314.14 C 350.70 316.14 351.40 318.14 352.36 320.04 C 353.17 322.41 353.91 324.82 354.89 327.14 C 355.31 328.10 355.71 329.08 356.09 330.06 C 356.37 331.11 356.66 332.15 356.96 333.20 C 357.83 334.74 358.54 336.36 358.89 338.11 C 360.05 340.72 360.92 343.44 361.88 346.13 C 362.79 348.05 363.48 350.07 363.93 352.16 C 364.17 352.64 364.65 353.61 364.89 354.09 C 365.81 356.03 366.46 358.08 366.95 360.17 C 369.39 365.33 371.10 370.81 373.01 376.19 C 373.78 377.77 374.39 379.43 374.84 381.14 C 376.17 383.46 376.81 386.09 376.90 388.76 C 355.11 388.75 333.31 388.97 311.52 388.64 C 311.04 387.72 310.57 386.81 310.08 385.90 C 308.73 382.26 307.35 378.64 306.09 374.98 C 305.70 373.93 305.31 372.89 304.94 371.85 C 304.14 369.11 302.83 366.57 301.96 363.86 C 301.14 361.17 299.89 358.65 299.05 355.97 C 298.68 354.94 298.33 353.90 298.00 352.86 C 297.79 352.38 297.36 351.43 297.15 350.95 C 296.79 349.94 296.43 348.94 296.07 347.94 C 295.68 346.91 295.31 345.88 294.95 344.85 C 294.76 344.28 294.37 343.14 294.18 342.57 C 293.66 342.38 292.63 342.00 292.11 341.81 C 257.01 341.75 221.91 341.87 186.82 341.75 C 186.30 342.05 185.28 342.66 184.76 342.96 C 179.05 357.65 173.87 372.55 168.13 387.22 C 167.45 388.88 165.50 388.76 164.02 388.81 C 143.15 388.76 122.28 388.84 101.41 388.77 C 103.23 380.43 107.19 372.74 109.78 364.63 C 113.34 355.50 116.55 346.23 120.18 337.13 C 147.95 261.92 176.17 186.88 204.05 111.69 C 204.44 110.01 205.24 108.49 206.40 107.21 M 238.49 198.43 C 233.92 210.58 229.52 222.81 224.81 234.91 C 220.11 248.20 214.91 261.31 210.19 274.58 C 209.88 276.08 208.19 277.42 208.87 279.01 C 210.53 279.48 212.27 279.40 213.98 279.43 C 232.56 279.36 251.15 279.44 269.73 279.38 C 269.68 277.78 269.31 276.26 268.63 274.82 C 268.54 274.36 268.35 273.45 268.26 273.00 C 266.97 270.39 266.13 267.61 265.11 264.90 C 264.69 263.93 264.30 262.94 263.93 261.96 C 263.63 260.91 263.33 259.86 263.04 258.82 C 262.20 257.24 261.48 255.60 260.92 253.90 C 260.62 252.88 260.32 251.86 260.02 250.85 C 259.78 250.36 259.31 249.38 259.07 248.89 C 258.68 247.89 258.31 246.89 257.97 245.88 C 257.13 243.16 255.91 240.59 254.93 237.93 C 254.63 236.89 254.33 235.85 254.03 234.81 C 253.19 233.28 252.53 231.66 252.05 229.99 C 251.69 228.92 251.34 227.86 250.99 226.80 C 250.16 225.24 249.48 223.61 249.11 221.88 C 247.95 219.28 247.06 216.58 246.12 213.90 C 245.70 212.91 245.30 211.92 244.91 210.93 C 244.61 209.89 244.33 208.86 244.04 207.83 C 243.21 206.24 242.47 204.60 241.95 202.88 C 241.28 201.03 240.63 199.18 240.11 197.28 C 239.71 197.57 238.90 198.14 238.49 198.43 Z" />
<path fill="#000000" opacity="1.00" d=" M 441.16 109.92 C 447.60 108.24 454.25 106.96 460.94 107.20 C 508.81 107.22 556.67 107.19 604.54 107.21 C 605.14 126.13 604.60 145.07 604.82 164.00 C 604.70 165.70 605.14 167.60 604.14 169.12 C 601.44 169.59 598.69 169.36 595.97 169.40 C 551.96 169.39 507.94 169.40 463.92 169.40 C 458.62 169.18 453.46 171.10 449.28 174.31 C 447.89 175.58 446.56 176.91 445.29 178.29 C 441.72 183.32 439.48 189.55 440.44 195.78 C 440.94 202.39 444.99 208.02 449.90 212.19 C 454.10 214.89 458.96 216.65 464.00 216.61 C 488.65 216.59 513.30 216.61 537.94 216.60 C 541.95 216.62 545.98 216.44 549.95 217.11 C 558.48 217.41 566.55 220.28 574.64 222.64 L 574.72 223.37 C 578.42 224.27 581.94 226.07 585.02 228.30 C 586.43 229.05 587.85 229.79 589.25 230.57 C 594.34 233.79 598.72 237.82 603.13 241.87 C 611.94 250.68 618.69 261.40 623.03 273.06 C 623.71 275.07 624.40 277.09 625.03 279.13 C 627.61 287.50 628.13 296.28 627.80 304.98 C 628.39 315.55 625.65 325.97 621.75 335.71 C 620.94 337.64 619.42 339.36 619.44 341.55 C 619.10 341.63 618.42 341.80 618.08 341.88 L 618.71 343.11 C 617.10 344.45 616.33 346.43 615.45 348.27 C 611.73 353.54 607.96 358.81 603.44 363.44 C 601.41 365.40 599.31 367.29 597.06 368.98 C 590.82 374.48 583.51 378.59 575.93 381.92 C 573.94 382.77 571.87 383.39 569.80 383.97 C 566.48 385.91 562.58 386.36 558.85 386.95 C 553.11 388.74 546.98 388.66 541.02 388.79 C 493.33 388.80 445.64 388.78 397.95 388.80 C 396.41 388.80 394.90 388.57 393.39 388.32 C 393.37 368.05 393.50 347.78 393.33 327.51 C 394.44 326.84 395.62 326.24 396.96 326.40 C 445.31 326.41 493.65 326.40 542.00 326.40 C 552.25 326.60 561.96 319.34 564.83 309.53 C 565.65 307.43 565.25 305.00 566.39 303.01 C 565.24 299.74 565.27 296.15 563.78 292.97 C 561.82 288.54 558.11 285.50 554.86 282.16 L 553.92 282.74 C 553.05 281.72 552.01 280.86 550.67 280.63 C 546.57 279.47 542.26 278.55 537.99 279.07 C 530.32 278.97 522.63 278.67 514.93 278.88 C 510.62 279.81 506.29 278.41 501.96 278.87 C 499.63 278.86 497.30 278.94 494.99 279.10 C 492.34 278.65 489.66 278.77 487.02 279.13 C 479.69 278.37 472.31 279.01 464.99 279.09 C 452.75 278.95 440.38 276.85 429.20 271.72 C 426.17 269.90 422.51 269.07 419.95 266.54 C 419.70 266.57 419.19 266.65 418.93 266.69 C 414.17 262.86 408.76 259.82 404.52 255.38 C 397.41 248.65 391.50 240.63 387.17 231.88 C 385.40 228.71 383.75 225.42 383.10 221.81 C 382.60 220.86 382.09 219.91 381.57 218.97 C 381.40 217.94 381.22 216.91 381.05 215.89 C 380.62 214.57 380.29 213.23 379.96 211.89 C 377.59 204.47 378.31 196.61 378.19 188.95 C 378.14 185.30 378.24 181.63 379.03 178.05 C 380.39 171.10 382.04 164.08 385.45 157.82 C 386.02 155.71 386.78 153.59 388.29 151.97 C 389.96 149.36 390.66 146.05 393.16 144.07 C 401.00 132.09 412.35 122.46 425.15 116.14 C 429.17 113.73 433.64 112.30 438.11 110.98 C 439.12 110.63 440.14 110.28 441.16 109.92 Z" />
<path fill="#000000" opacity="1.00" d=" M 863.12 113.09 C 865.43 111.18 866.96 108.08 869.91 107.06 C 872.14 107.47 873.36 109.62 874.88 111.10 C 876.99 112.99 878.95 115.05 880.95 117.07 C 881.60 117.72 882.26 118.38 882.94 119.04 C 883.94 120.04 884.93 121.05 885.95 122.06 C 886.94 123.07 887.95 124.07 888.97 125.08 C 889.60 125.73 890.24 126.39 890.89 127.06 C 895.90 132.08 900.98 137.03 905.91 142.14 C 907.28 143.64 909.54 144.74 909.83 146.94 C 910.36 149.72 907.51 151.16 905.91 152.87 C 903.96 154.95 901.97 156.96 899.88 158.89 C 894.76 163.95 889.94 169.39 884.42 174.00 C 884.48 175.05 884.58 176.10 884.68 177.15 C 887.25 180.48 889.00 184.32 890.86 188.07 C 891.11 188.60 891.62 189.64 891.87 190.16 C 893.34 192.60 894.32 195.28 895.32 197.94 C 895.93 199.29 896.45 200.66 896.92 202.07 C 897.30 203.09 897.68 204.11 898.08 205.14 C 898.70 207.49 899.28 209.85 900.02 212.18 C 902.05 218.60 902.99 225.29 904.14 231.91 C 904.96 242.56 905.30 253.34 904.01 263.96 C 903.60 266.27 903.44 268.62 902.96 270.92 C 901.33 282.28 897.41 293.12 893.26 303.75 L 892.62 303.69 C 892.02 306.76 890.61 309.69 888.60 312.08 C 888.61 312.33 888.63 312.83 888.64 313.08 C 886.83 314.73 886.33 317.26 884.67 319.02 C 880.88 325.80 875.92 331.92 870.98 337.89 C 869.93 338.88 868.91 339.90 867.92 340.94 C 866.12 343.11 863.94 344.91 861.93 346.87 C 859.41 349.75 856.11 351.76 853.38 354.40 C 842.84 362.45 831.30 369.45 818.80 373.97 C 817.28 374.83 815.66 375.52 813.96 375.88 C 811.61 376.62 809.25 377.28 806.92 378.03 C 800.70 379.79 794.39 381.37 787.94 381.93 C 784.41 382.95 780.68 382.49 777.09 383.14 C 762.07 384.09 747.00 382.02 732.47 378.23 C 725.96 376.32 719.78 373.43 713.36 371.33 C 713.32 371.04 713.24 370.45 713.19 370.16 L 711.48 370.74 L 711.18 369.20 C 710.76 369.33 709.92 369.58 709.49 369.71 C 709.40 369.32 709.22 368.54 709.13 368.15 L 707.63 368.77 C 707.52 368.43 707.30 367.75 707.19 367.41 L 705.88 367.69 C 704.31 365.86 701.90 365.27 700.01 363.90 C 698.95 363.44 697.90 362.99 696.85 362.55 C 687.60 371.13 678.93 380.34 669.93 389.19 C 666.75 387.41 664.52 384.48 661.92 382.02 C 650.96 371.17 640.19 360.12 629.13 349.37 C 629.27 348.24 629.05 346.92 630.01 346.09 C 634.07 342.13 638.03 338.07 642.08 334.10 C 646.15 329.99 650.21 325.86 654.42 321.88 C 654.48 321.12 654.61 319.60 654.67 318.84 C 653.70 317.55 652.83 316.21 652.11 314.78 C 650.79 312.15 649.02 309.74 648.10 306.93 C 647.86 306.41 647.37 305.38 647.13 304.87 C 646.88 304.36 646.37 303.35 646.12 302.85 C 645.85 302.37 645.30 301.40 645.02 300.92 C 644.65 299.89 644.30 298.86 643.97 297.84 C 640.21 288.55 637.54 278.85 635.97 268.96 C 635.38 266.65 635.29 264.27 635.13 261.91 C 633.97 252.73 633.95 243.29 635.07 234.09 C 635.92 221.04 639.79 208.42 644.30 196.22 C 645.69 193.29 647.34 190.46 648.13 187.28 C 648.52 186.94 649.29 186.25 649.67 185.91 C 649.61 185.64 649.47 185.11 649.41 184.84 C 651.44 182.89 652.17 180.07 653.59 177.71 C 654.31 176.78 654.98 175.80 655.64 174.82 C 656.32 173.80 656.98 172.77 657.65 171.75 C 658.71 170.14 659.71 168.47 661.06 167.08 C 661.76 165.52 662.77 164.15 664.15 163.12 C 668.22 157.03 673.90 152.22 679.08 147.10 C 687.74 139.12 697.72 132.60 708.12 127.11 C 709.44 126.43 710.76 125.75 712.08 125.05 C 713.08 124.67 714.10 124.32 715.12 123.98 C 715.63 123.78 716.64 123.37 717.14 123.17 C 718.69 122.22 720.34 121.43 722.12 120.96 C 725.11 119.88 728.14 118.92 731.16 117.93 C 732.44 117.55 733.74 117.25 735.05 116.95 C 736.38 116.60 737.72 116.30 739.07 115.95 C 752.43 112.97 766.30 111.47 779.95 113.02 C 783.26 113.37 786.64 113.27 789.92 114.01 C 806.86 116.52 823.45 122.34 838.00 131.34 C 839.76 132.67 842.03 133.12 844.12 132.33 C 845.59 130.41 847.33 128.71 849.13 127.09 C 849.76 126.43 850.40 125.78 851.06 125.13 C 855.05 121.09 858.97 116.98 863.12 113.09 M 751.20 173.09 C 750.08 173.39 748.96 173.67 747.85 173.92 C 746.86 174.24 745.88 174.57 744.91 174.91 C 743.91 175.30 742.89 175.66 741.88 175.99 C 732.72 179.74 723.94 184.82 716.93 191.88 C 708.55 199.33 702.54 208.92 698.10 219.14 C 697.57 220.43 697.11 221.73 696.64 223.04 C 694.85 228.53 693.80 234.21 692.94 239.91 C 692.57 245.23 692.24 250.63 693.13 255.92 C 693.39 261.13 695.16 266.08 695.94 271.20 C 696.20 271.67 696.72 272.61 696.97 273.08 C 697.32 274.09 697.66 275.11 697.99 276.13 C 698.53 277.45 699.09 278.78 699.70 280.09 C 700.55 281.36 701.23 282.74 701.85 284.15 C 704.73 289.97 708.80 295.05 712.84 300.09 C 713.89 301.07 714.93 302.07 715.94 303.11 C 717.89 305.58 720.98 306.71 722.89 309.20 C 723.66 309.67 724.43 310.13 725.22 310.60 C 726.20 311.30 727.21 311.97 728.23 312.65 C 730.05 314.12 732.36 314.81 734.10 316.40 C 734.36 316.39 734.89 316.37 735.16 316.37 C 737.20 318.49 740.46 318.76 743.06 320.01 C 758.96 326.17 776.86 326.08 793.08 321.20 C 794.08 320.83 795.08 320.46 796.10 320.10 C 797.10 319.69 798.12 319.32 799.16 318.97 C 799.65 318.77 800.64 318.37 801.14 318.17 C 802.44 317.42 803.78 316.76 805.16 316.15 C 810.98 313.24 816.03 309.11 821.14 305.14 C 823.03 303.04 825.03 301.03 827.13 299.13 C 829.78 295.87 832.20 292.44 834.67 289.04 C 836.04 287.07 836.66 284.63 838.45 282.95 C 838.39 282.58 838.27 281.85 838.21 281.48 L 839.13 281.45 C 842.16 273.91 844.89 266.20 846.07 258.11 C 847.05 248.01 846.83 237.66 843.98 227.86 C 843.48 226.26 843.11 224.62 842.68 223.01 C 841.96 221.69 841.38 220.29 841.01 218.84 C 840.40 217.50 839.77 216.17 839.15 214.85 C 838.41 213.54 837.75 212.19 837.16 210.82 C 835.04 207.06 832.70 203.42 830.02 200.03 C 826.18 195.21 821.52 191.16 817.08 186.91 C 816.23 186.43 815.40 185.92 814.60 185.38 C 813.69 184.64 812.74 183.97 811.77 183.34 C 803.01 177.81 793.31 173.91 783.13 171.92 C 772.51 170.10 761.63 170.42 751.20 173.09 Z" />
<path fill="#000000" opacity="1.00" d=" M 911.22 107.23 C 931.82 107.17 952.43 107.23 973.04 107.19 C 973.85 120.43 973.18 133.73 973.40 147.00 C 973.40 201.02 973.40 255.04 973.40 309.06 C 973.44 314.80 973.25 320.55 973.58 326.29 C 1010.40 326.55 1047.22 326.33 1084.04 326.40 C 1090.13 326.51 1096.23 326.14 1102.31 326.64 C 1102.74 344.08 1102.37 361.53 1102.49 378.98 C 1102.39 382.23 1102.90 385.58 1101.91 388.74 C 1038.37 388.80 974.83 388.90 911.29 388.69 C 911.08 311.79 911.26 234.89 911.20 157.98 C 911.49 152.96 910.44 147.96 911.18 142.95 C 911.25 131.04 911.16 119.13 911.22 107.23 Z" />
</g>
</svg>
