<?xml version="1.0" encoding="UTF-8" ?>
<!DOCTYPE svg PUBLIC "-//W3C//DTD SVG 1.1//EN" "http://www.w3.org/Graphics/SVG/1.1/DTD/svg11.dtd">
<svg width="1226pt" height="510pt" viewBox="0 0 1226 510" version="1.1" xmlns="http://www.w3.org/2000/svg">
<g id="#fefefeff">
</g>
<g id="#a855f7ff">
<path fill="#a855f7" opacity="1.00" d=" M 203.77 111.61 C 204.32 109.57 205.29 106.49 207.97 106.87 C 229.69 106.91 251.42 106.77 273.15 106.95 C 279.76 122.85 285.22 139.28 291.43 155.37 C 319.87 231.98 348.35 308.57 376.80 385.19 C 377.17 386.43 377.26 387.71 377.07 389.02 C 355.38 388.93 333.68 389.10 312.00 388.95 C 308.73 386.51 308.82 381.65 306.91 378.23 C 302.57 366.33 298.20 354.44 293.70 342.60 C 290.19 341.64 286.55 342.11 282.98 342.00 C 251.64 342.02 220.31 342.00 188.97 342.01 C 186.98 341.79 184.79 342.85 184.29 344.91 C 179.07 358.79 174.01 372.73 168.73 386.58 C 168.33 387.76 167.35 389.11 165.95 389.00 C 144.46 389.04 122.97 388.94 101.48 389.05 C 101.26 383.99 104.47 379.48 105.78 374.68 C 138.42 286.99 171.16 199.32 203.77 111.61 M 237.87 200.80 C 228.37 226.82 218.40 252.68 209.00 278.74 C 229.09 279.34 249.22 278.83 269.33 279.00 C 268.30 272.94 265.36 267.41 263.51 261.57 C 255.54 240.39 247.72 219.15 239.76 197.97 C 238.35 198.14 238.36 199.81 237.87 200.80 Z" />
<path fill="#a855f7" opacity="1.00" d=" M 394.84 140.97 C 409.41 121.46 432.64 108.51 457.00 106.94 C 501.34 106.78 545.68 106.92 590.02 106.87 C 594.97 106.93 599.93 106.69 604.88 107.07 C 605.16 127.06 604.92 147.06 605.00 167.05 C 605.43 169.30 602.70 169.82 601.05 169.74 C 557.37 169.73 513.69 169.74 470.01 169.73 C 465.29 169.75 460.43 169.48 455.89 171.00 C 446.83 174.19 440.49 183.48 440.52 193.04 C 440.33 204.98 450.60 215.94 462.60 216.20 C 487.74 216.35 512.88 216.22 538.01 216.26 C 554.56 215.93 571.46 219.49 585.69 228.17 C 608.65 241.22 624.69 265.55 627.91 291.74 C 628.78 304.53 628.76 317.76 624.15 329.90 C 617.82 349.68 603.87 366.83 585.93 377.27 C 572.34 385.00 556.75 389.60 541.04 389.01 C 492.67 389.00 444.30 389.00 395.93 389.00 C 394.90 388.89 393.92 388.62 392.97 388.19 C 393.11 367.88 392.80 347.56 393.16 327.25 C 394.33 326.59 395.53 325.81 396.96 326.00 C 445.97 325.99 494.99 326.00 544.00 326.00 C 551.09 325.54 557.65 321.38 561.67 315.61 C 566.68 308.15 566.79 297.78 561.82 290.27 C 557.71 283.49 549.91 279.42 542.04 279.39 C 515.71 279.25 489.38 279.54 463.05 279.25 C 445.96 279.27 429.02 273.75 414.93 264.13 C 396.94 252.01 384.12 232.68 379.43 211.55 C 377.13 201.98 377.75 192.05 378.07 182.29 C 379.96 167.38 385.71 152.90 394.84 140.97 Z" />
<path fill="#a855f7" opacity="1.00" d=" M 868.44 107.34 C 869.53 106.50 871.20 106.80 872.08 107.83 C 884.41 119.85 896.32 132.28 908.63 144.32 C 910.05 145.51 911.29 148.08 909.63 149.59 C 901.35 157.91 893.08 166.25 884.69 174.48 C 885.11 178.56 888.36 181.48 889.81 185.19 C 898.53 201.46 903.42 219.64 904.95 238.00 C 905.04 244.69 905.02 251.38 904.96 258.07 C 903.01 281.52 895.39 304.67 881.92 324.06 C 861.74 354.21 828.86 375.54 793.07 381.58 C 767.37 386.19 740.35 383.04 716.40 372.63 C 710.04 370.35 704.42 366.62 698.44 363.60 C 697.42 362.68 696.17 363.32 695.41 364.14 C 687.35 372.20 679.30 380.28 671.23 388.33 C 669.89 390.07 667.86 388.50 666.78 387.35 C 655.09 375.67 643.43 363.97 631.72 352.31 C 630.52 350.99 628.69 349.91 628.62 347.93 C 628.69 346.58 630.00 345.87 630.77 344.93 C 638.73 337.07 646.61 329.14 654.51 321.22 C 653.62 316.25 649.81 312.47 648.06 307.80 C 633.56 278.81 629.94 244.47 638.48 213.15 C 647.27 178.86 670.28 148.51 700.94 130.77 C 735.03 110.47 778.27 106.45 815.52 120.20 C 824.21 123.38 832.58 127.47 840.50 132.27 C 842.13 133.35 843.81 132.02 844.91 130.84 C 852.77 123.02 860.49 115.07 868.44 107.34 M 758.61 172.03 C 738.91 174.69 720.65 185.61 708.65 201.40 C 695.54 218.47 690.00 241.26 694.40 262.39 C 698.27 282.20 710.07 300.72 727.21 311.60 C 745.42 324.10 769.23 327.64 790.39 321.53 C 811.70 315.81 829.97 300.08 839.09 280.04 C 851.48 254.59 847.54 222.34 829.78 200.37 C 813.40 179.18 785.11 167.67 758.61 172.03 Z" />
<path fill="#a855f7" opacity="1.00" d=" M 910.97 106.96 C 931.65 106.80 952.34 106.83 973.02 106.94 C 973.38 108.26 973.62 109.61 973.74 110.98 C 973.74 178.32 973.73 245.66 973.74 313.00 C 973.80 317.33 973.48 321.68 974.07 325.99 C 1016.08 326.02 1058.08 325.98 1100.09 326.00 C 1101.74 325.75 1103.03 327.39 1102.88 328.95 C 1102.96 346.31 1102.87 363.68 1102.92 381.04 C 1102.86 383.72 1103.34 386.59 1101.92 389.02 C 1038.32 388.92 974.72 389.11 911.12 388.93 C 910.57 370.64 911.04 352.32 910.88 334.01 C 910.94 258.33 910.76 182.64 910.97 106.96 Z" />
</g>
</svg>
